<svg width="18" height="20" viewBox="0 0 18 20" fill="none" xmlns="http://www.w3.org/2000/svg">
<path d="M12.991 2.87103H13.634V2.228V1.24775C13.634 1.06375 13.7873 0.910525 13.9713 0.910525C14.1553 0.910525 14.3085 1.06375 14.3085 1.24775V2.228V2.87103H14.9515L15.9318 2.87103C16.6549 2.87103 17.2493 3.46536 17.2493 4.1885L17.2493 17.912C17.2493 18.6351 16.6549 19.2295 15.9318 19.2295L2.20827 19.2295C1.47748 19.2295 0.890898 18.6373 0.890796 17.9122C0.890796 17.9121 0.890796 17.9121 0.890796 17.912L0.900598 4.18896V4.1885C0.900598 3.45904 1.48161 2.87103 2.20827 2.87103L3.18852 2.87103H3.83155L3.83155 2.228V1.24775C3.83155 1.06375 3.98477 0.910525 4.16877 0.910525C4.35278 0.910525 4.506 1.06375 4.506 1.24775L4.506 2.228V2.87103H5.14902L12.991 2.87103ZM2.20827 6.48623L1.56525 6.48623L1.56525 7.12925L1.56525 16.9318C1.56525 17.826 2.29425 18.555 3.18852 18.555L14.9515 18.555C15.8458 18.555 16.5748 17.826 16.5748 16.9318V7.12925L16.5748 6.48623H15.9318L2.20827 6.48623ZM10.0503 11.6933H12.991C13.175 11.6933 13.3282 11.8465 13.3282 12.0305V14.9713C13.3282 15.1553 13.175 15.3085 12.991 15.3085H10.0503C9.86627 15.3085 9.71305 15.1553 9.71305 14.9713V12.0305C9.71305 11.8465 9.86627 11.6933 10.0503 11.6933Z" fill="#2F80ED" stroke="#2F80ED" stroke-width="1.28605"/>
</svg>
